<?xml version="1.0" encoding="utf-8"?>
<!-- Generator: Adobe Illustrator 16.2.1, SVG Export Plug-In . SVG Version: 6.00 Build 0)  -->
<!DOCTYPE svg PUBLIC "-//W3C//DTD SVG 1.1//EN" "http://www.w3.org/Graphics/SVG/1.1/DTD/svg11.dtd">
<svg version="1.1" id="Livello_1" xmlns="http://www.w3.org/2000/svg" xmlns:xlink="http://www.w3.org/1999/xlink" x="0px" y="0px"
	 width="431.975px" height="430.866px" viewBox="0 0 431.975 430.866" enable-background="new 0 0 431.975 430.866"
	 xml:space="preserve">
<path fill="#4774B6" d="M430.862,215.431c0,118.98-96.446,215.435-215.431,215.435C96.451,430.866,0,334.411,0,215.431
	C0,96.451,96.451,0,215.431,0C334.416,0,430.862,96.451,430.862,215.431z"/>
<path fill="#FFFFFF" d="M8.714,276.281c0,0,76.3-48.925,160.269-8.983c86.852,41.312,155.551,77.154,245.547,35.367
	c0,0,0,32.293-104.62,35.497c-50.614,1.547-85.767-15.559-114.75-27.593c-22.786-9.461-84.551-46.717-184.752-28.807L8.714,276.281z
	"/>
<path fill="#FFFFFF" d="M232.427,0.66c0,0-87.894,264.909-179.015,357.163c0,0,4.499,8.999,12.375,12.371
	c0,0,98.438-62.593,209.248-361.843C275.035,8.351,254.426,2.052,232.427,0.66z"/>
<path fill="#FFFFFF" d="M388.246,86.78c0,0-104.213,235.042-123.341,274.417c0,0-7.871,14.624,0,19.123
	c7.876,4.499,42.33-9.394,45.387-16.651c2.868-6.819-10.406,0.715-1.514-19.351c11.034-24.884,80.469-171.915,100.719-222.539
	C409.497,121.779,403.198,106.233,388.246,86.78z"/>
<text transform="matrix(1 0 0 1 404.896 65.5645)" fill="#4774B6" font-family="'MaturaMTScriptCapitals'" font-size="40">©</text>
</svg>
